<?xml version="1.0" encoding="utf-8"?>
<!-- Generator: Adobe Illustrator 25.1.0, SVG Export Plug-In . SVG Version: 6.00 Build 0)  -->
<svg version="1.1" id="Layer_1" xmlns="http://www.w3.org/2000/svg" xmlns:xlink="http://www.w3.org/1999/xlink" x="0px" y="0px"
	 viewBox="0 0 899.3 149.3" style="enable-background:new 0 0 899.3 149.3;" xml:space="preserve">
<style type="text/css">
	.st0{fill:url(#SVGID_1_);}
	.st1{fill:#035A71;}
	.st2{fill:#FFFFFF;}
	.st3{fill:#231F20;}
</style>
<g id="Main">
	
		<linearGradient id="SVGID_1_" gradientUnits="userSpaceOnUse" x1="40.0299" y1="778.2405" x2="184.2099" y2="819.3405" gradientTransform="matrix(1 0 0 1 -25.74 -739.33)">
		<stop  offset="0" style="stop-color:#072332"/>
		<stop  offset="0.13" style="stop-color:#072635"/>
		<stop  offset="0.23" style="stop-color:#062F3F"/>
		<stop  offset="0.32" style="stop-color:#053D50"/>
		<stop  offset="0.41" style="stop-color:#045268"/>
		<stop  offset="0.44" style="stop-color:#035A71"/>
	</linearGradient>
	<path class="st0" d="M106.8,108H25.2c-29.7,0-5.9-24.3-5.9-54l0,0c0.1-29.8,24.2-53.9,54-54h33.5c29.8,0.1,53.9,24.2,54,54l0,0
		C160.7,83.8,136.6,107.9,106.8,108z"/>
	<path class="st1" d="M7.6,147.7l103.1-147L107.2,0H4.4C2,0,0,2,0,4.4c0,0,0,0,0,0l0,0v140.8c0,2.3,1.9,4.2,4.2,4.2
		C5.5,149.3,6.8,148.7,7.6,147.7z"/>
	<circle class="st2" cx="106.2" cy="54.9" r="47.2"/>
	<circle class="st1" cx="106.2" cy="54.9" r="35.4"/>
	<circle class="st2" cx="91.6" cy="35.5" r="4.4"/>
	<path class="st2" d="M10.2,7.5h20.2c1.7,0,3.1,1.4,3.1,3.1v10.6c0,1.7-1.4,3.1-3.1,3.1H10.2c-1.7,0-3.1-1.4-3.1-3.1V10.6
		C7.1,8.9,8.5,7.5,10.2,7.5z"/>
</g>
<g id="Text">
	<path class="st3" d="M168,108.2l11.7-96.4h11.7l-5.4,44.8c3-4.7,6.9-8.6,11.5-11.7c3.8-2.5,8.3-3.9,12.9-4c5,0,8.9,1.7,11.6,5
		S226,54,226,60.3c0,0.9,0,1.8-0.1,2.7s-0.1,1.9-0.3,2.9l-5,42.2H209l5-42.2c0.1-0.9,0.2-1.7,0.2-2.5c0.1-0.8,0.1-1.6,0.1-2.3
		c0-3.6-0.7-6.2-2-8c-1.3-1.7-3.4-2.6-6.3-2.6c-2.1,0.1-4.2,0.6-6,1.6c-2.2,1.2-4.3,2.7-6.1,4.5c-2.1,2.1-4,4.5-5.5,7.1
		c-1.8,2.9-3.2,6-4.4,9.3l-4.3,35.2H168z"/>
	<path class="st3" d="M260.7,109.1c-3.4,0-6.8-0.6-10-1.9c-3-1.2-5.6-3.1-7.8-5.4c-2.3-2.5-4-5.5-5.1-8.7c-1.3-3.8-1.9-7.7-1.8-11.7
		c0-5.4,0.9-10.7,2.6-15.8c1.6-4.7,4-9.1,7.2-13c2.9-3.6,6.6-6.6,10.7-8.8c4.2-2.2,8.8-3.3,13.5-3.2c3.4,0,6.8,0.6,10,1.9
		c3,1.2,5.6,3,7.8,5.4c2.3,2.5,4,5.5,5.1,8.7c1.3,3.7,1.9,7.7,1.8,11.6c0,5.3-0.9,10.7-2.6,15.7c-1.6,4.7-4,9.1-7.2,13
		c-3,3.6-6.6,6.6-10.8,8.8C269.9,108.1,265.4,109.2,260.7,109.1z M261.8,100c3.1,0,6.1-0.9,8.7-2.6c2.7-1.8,5-4.2,6.7-7
		c1.9-3.1,3.4-6.5,4.3-10.1c1-3.9,1.5-7.9,1.5-11.9c0-6.1-1.2-10.7-3.6-13.8s-5.9-4.6-10.4-4.6c-3.1,0-6.2,0.9-8.8,2.6
		c-2.7,1.8-4.9,4.2-6.6,6.9c-1.9,3.1-3.4,6.5-4.3,10.1c-1,3.9-1.5,7.9-1.5,11.9c0,6.1,1.2,10.7,3.6,13.8S257.2,100,261.8,100
		L261.8,100z"/>
	<path class="st3" d="M308.8,95.7c0-0.3,0-0.6,0-1c0-0.4,0.1-1,0.1-1.8s0.2-1.8,0.3-3.1s0.3-2.9,0.6-5l4.2-33.2h-7.4
		c-0.5,0-1-0.2-1.4-0.5c-0.4-0.4-0.6-1-0.5-1.5c0-0.1,0-0.4,0.1-0.8s0.1-0.8,0.2-1.3s0.1-1,0.2-1.5s0.1-1,0.2-1.5l10.2-1.4l4.9-20.4
		c0.2-0.6,0.5-1.2,1-1.6c0.5-0.4,1.1-0.6,1.8-0.6h6.1l-2.9,22.8h17.4l-1,8.5h-17.5l-4,32.6c-0.2,1.8-0.4,3.2-0.5,4.3s-0.2,2-0.3,2.6
		s-0.1,1.1-0.1,1.4s0,0.4,0,0.6c-0.1,1.8,0.4,3.6,1.5,4.9c1.1,1.1,2.7,1.7,4.2,1.6c1,0,2-0.2,3-0.5c0.8-0.3,1.5-0.6,2.3-1.1
		c0.6-0.4,1.2-0.8,1.6-1.1c0.3-0.3,0.7-0.5,1.2-0.5c0.3,0,0.6,0.1,0.8,0.3c0.2,0.2,0.5,0.5,0.6,0.8l2.4,5.6
		c-2.1,1.9-4.6,3.4-7.2,4.4c-2.6,1-5.4,1.6-8.2,1.6c-4.2,0-7.6-1.2-10-3.5C310.2,103.5,308.9,100.1,308.8,95.7z"/>
	<path class="st3" d="M371.7,109.1c-3.4,0-6.8-0.6-10-1.9c-3-1.2-5.6-3.1-7.8-5.4c-2.3-2.5-4-5.4-5.1-8.7c-1.3-3.8-1.9-7.7-1.8-11.7
		c0-5.4,0.8-10.7,2.6-15.8c1.6-4.7,4-9.1,7.2-13c2.9-3.6,6.6-6.6,10.7-8.8c4.1-2.1,8.7-3.3,13.4-3.2c3.4,0,6.8,0.6,10,1.9
		c3,1.2,5.6,3,7.8,5.4c2.3,2.5,4,5.5,5.1,8.7c1.3,3.7,1.9,7.7,1.8,11.6c0,5.3-0.8,10.7-2.6,15.7c-1.6,4.7-4,9.1-7.2,13
		c-3,3.6-6.6,6.6-10.8,8.8C380.9,108,376.3,109.1,371.7,109.1z M372.7,100c3.1,0,6.1-0.9,8.7-2.6c2.7-1.8,5-4.2,6.7-7
		c1.9-3.1,3.4-6.5,4.2-10.1c1-3.9,1.5-7.9,1.5-11.9c0-6.1-1.2-10.7-3.6-13.8c-2.4-3.1-5.9-4.6-10.4-4.6c-3.1,0-6.2,0.9-8.7,2.6
		c-2.7,1.8-5,4.2-6.6,6.9c-1.9,3.1-3.4,6.5-4.3,10.1c-1,3.9-1.5,7.9-1.5,11.9c0,6.1,1.2,10.7,3.6,13.8S368.1,100,372.7,100
		L372.7,100z"/>
	<path class="st3" d="M462.8,60.3c0,2-0.3,4-0.8,5.9c-0.5,1.7-1.1,3.3-1.9,4.8c-0.7,1.4-1.5,2.8-2.4,4.2c-0.9,1.3-1.7,2.6-2.4,3.9
		c-0.7,1.3-1.4,2.6-1.9,4c-0.5,1.4-0.8,3-0.8,4.5c0,1.8,0.4,3.5,1.4,5c0.9,1.5,1.9,3,2.9,4.6c1.1,1.6,2.1,3.4,3,5.1
		c0.9,2.1,1.4,4.3,1.3,6.6c0,3.1-0.8,6.1-2.2,8.9c-1.5,2.9-3.6,5.4-6.1,7.4c-2.9,2.3-6.2,4-9.7,5.1c-4.2,1.3-8.5,1.9-12.9,1.9
		c-3.5,0-7-0.4-10.4-1.2c-2.8-0.7-5.5-1.8-8-3.3c-2.1-1.3-3.8-3.1-5.1-5.2c-1.2-2-1.8-4.4-1.8-6.7c-0.1-3.2,0.9-6.3,2.7-8.9
		c1.9-2.6,4.3-4.7,7.1-6.2c3.1-1.7,6.5-2.9,10-3.5c3.8-0.7,7.6-1.1,11.4-1.1c1.6,0,3.1,0.1,4.7,0.2s3.1,0.3,4.6,0.5
		c-0.4-0.8-0.7-1.7-1-2.6c-0.2-1-0.4-1.9-0.4-2.9c0-1.4,0.2-2.8,0.6-4.2c0.5-1.7,1.2-3.3,2.1-4.8c-1.7,1.2-3.6,2-5.6,2.6
		c-2.3,0.6-4.6,0.9-7,0.9c-2.4,0-4.8-0.4-7.1-1.2c-2.2-0.8-4.1-2.1-5.8-3.7c-1.7-1.7-3.1-3.8-3.9-6.1c-1-2.7-1.5-5.6-1.4-8.5
		c0-3.2,0.6-6.3,1.7-9.3c1.1-3,2.9-5.8,5.1-8.1c2.3-2.5,5.1-4.4,8.2-5.7c3.6-1.5,7.5-2.2,11.3-2.2c4.4-0.1,8.7,1.1,12.5,3.3h18
		l-0.5,3.9c-0.1,0.7-0.3,1.4-0.8,2c-0.4,0.6-1.1,1-1.9,1.1l-8.3,1.5c0.4,1.2,0.7,2.4,0.9,3.6C462.7,57.6,462.8,58.9,462.8,60.3z
		 M450.6,109.8c0-1.1-0.1-2.1-0.3-3.2c-0.2-0.9-0.5-1.9-0.9-2.8c-2.4-0.4-4.6-0.7-6.6-0.8s-4-0.3-5.9-0.3c-3.1,0-6.2,0.3-9.3,1
		c-2.3,0.5-4.5,1.4-6.5,2.5c-1.5,0.9-2.8,2.1-3.8,3.6c-0.8,1.3-1.2,2.8-1.2,4.3c-0.1,3,1.4,5.7,4,7.2c2.7,1.6,6.4,2.5,11.2,2.5
		c2.7,0,5.3-0.4,7.9-1.1c2.2-0.7,4.2-1.7,6.1-3c1.6-1.2,3-2.7,3.9-4.4C450.1,113.6,450.6,111.8,450.6,109.8z M437.5,78.3
		c2.2,0.1,4.3-0.5,6.2-1.5c1.8-1,3.3-2.4,4.5-4.1c1.3-1.7,2.2-3.6,2.9-5.7c0.7-2.1,1-4.2,1-6.3c0-3.8-1-6.8-2.9-8.7
		c-2.1-2.1-5-3.1-8-3c-2.2,0-4.3,0.5-6.2,1.4c-1.8,0.9-3.3,2.3-4.5,3.9c-1.3,1.7-2.2,3.5-2.8,5.5c-0.6,2.1-1,4.2-1,6.4
		c0,3.9,1,6.9,2.9,9C431.6,77.3,434.5,78.4,437.5,78.3z"/>
	<path class="st3" d="M475,108.2l8-66.4h5.8c1-0.1,2,0.2,2.9,0.8c0.7,0.7,1.1,1.6,1,2.6c0,0.2,0,0.4,0,0.8s0,0.7-0.1,1
		s0,0.7-0.1,0.9s0,0.4,0,0.5l-0.9,12.1c2.8-6.1,6-10.8,9.5-14.2c3.5-3.3,7.2-5,11.1-5c1.9,0,3.8,0.4,5.5,1.2l-2.1,11.2
		c-1.9-0.8-3.9-1.2-6-1.2c-4.2,0-8,2.1-11.3,6.2c-3.3,4.1-6.1,10.4-8.4,18.8l-3.7,30.8H475z"/>
	<path class="st3" d="M567.2,108.2h-6c-1.5,0-2.6-0.4-3.1-1.2c-0.6-0.9-0.8-1.9-0.8-2.9l1.2-13.4c-1.5,2.7-3.2,5.2-5.1,7.6
		c-1.7,2.1-3.6,4.1-5.8,5.8c-1.9,1.5-4.1,2.8-6.4,3.7c-2.2,0.9-4.6,1.3-7,1.3c-2.5,0-4.9-0.5-7.1-1.5c-2.2-1-4-2.6-5.5-4.5
		c-1.6-2.2-2.8-4.7-3.5-7.3c-0.8-3.2-1.2-6.6-1.2-9.9c0-3.9,0.5-7.7,1.5-11.5c1.9-7.3,5.6-14.1,10.7-19.7c2.5-2.8,5.4-5.2,8.5-7.2
		c3.1-2,6.5-3.6,10-4.7c3.7-1.1,7.5-1.7,11.3-1.7c2.8,0,5.6,0.2,8.3,0.7c2.7,0.5,5.4,1.3,8,2.4L567.2,108.2z M538.7,99.4
		c2.2,0,4.4-0.7,6.3-2c2.2-1.5,4.2-3.4,5.8-5.5c2-2.6,3.8-5.4,5.2-8.4c1.7-3.5,3.1-7,4.2-10.7L563,50c-0.9-0.2-1.9-0.4-2.8-0.4
		c-0.9-0.1-1.9-0.1-2.8-0.1c-2.6,0-5.2,0.4-7.6,1.3c-2.4,0.9-4.8,2.1-6.9,3.6c-2.2,1.6-4.1,3.4-5.8,5.5c-1.8,2.2-3.3,4.5-4.5,7
		c-1.3,2.6-2.2,5.3-2.9,8.1c-0.7,2.9-1,5.8-1,8.8C528.6,94.2,532,99.4,538.7,99.4z"/>
	<path class="st3" d="M584.7,108.2l8-66.4h5.8c2.6,0,3.9,1.3,3.9,3.9l-0.9,11.9c3.3-5.5,6.8-9.7,10.7-12.5c3.5-2.7,7.9-4.2,12.3-4.2
		c4.5,0,7.8,1.5,10,4.6s3.2,7.5,3.2,13.2c3.3-6.1,7.1-10.6,11.2-13.5c3.8-2.8,8.3-4.3,13-4.3c4.9,0,8.6,1.6,11,4.8s3.7,7.8,3.6,13.8
		c0,1,0,2.1-0.1,3.2s-0.2,2.2-0.3,3.4l-5,42.2h-11.5l5-42.2c0.2-1.9,0.4-3.9,0.4-5.8c0-3.3-0.5-5.7-1.6-7.2
		c-1.1-1.6-2.9-2.3-5.5-2.3c-2,0-3.9,0.5-5.6,1.4c-2,1.1-3.9,2.4-5.4,4.1c-1.9,2-3.5,4.3-4.8,6.7c-1.6,3-3,6.1-4,9.3l-4.2,36.1
		h-11.6l5-42.2c0.1-1.2,0.2-2.3,0.3-3.3s0.1-2,0.1-3c0-3.1-0.5-5.4-1.5-6.9s-2.8-2.2-5.4-2.2c-2.1,0-4.2,0.5-6.1,1.6
		c-2.1,1.2-4,2.7-5.5,4.5c-1.9,2.2-3.5,4.7-4.8,7.3c-1.6,3.1-2.9,6.3-4.1,9.7l-4.1,34.6L584.7,108.2z"/>
	<path class="st3" d="M687.5,108.2l8-66.4h5.8c2.6,0,3.9,1.3,3.9,3.9l-0.9,11.9c3.3-5.5,6.8-9.7,10.7-12.5c3.5-2.7,7.9-4.2,12.3-4.2
		c4.5,0,7.8,1.5,10,4.6c2.2,3.1,3.2,7.5,3.2,13.2c3.3-6.1,7.1-10.6,11.2-13.5c3.8-2.8,8.3-4.3,13-4.3c4.9,0,8.6,1.6,11,4.8
		s3.6,7.8,3.6,13.8c0,1,0,2.1-0.1,3.2s-0.2,2.2-0.3,3.4l-5,42.2h-11.5l5-42.2c0.3-1.9,0.4-3.9,0.4-5.8c0-3.3-0.5-5.7-1.6-7.2
		c-1.1-1.5-2.9-2.3-5.5-2.3c-2,0-3.9,0.5-5.7,1.4c-2,1.1-3.9,2.4-5.4,4.1c-1.9,2-3.5,4.3-4.9,6.8c-1.6,3-3,6.1-4,9.3l-4.3,36.1
		h-11.5l5.1-42.2c0.1-1.2,0.2-2.3,0.3-3.3s0.1-2,0.1-3c0-3.1-0.5-5.4-1.5-6.9s-2.8-2.2-5.4-2.2c-2.1,0-4.2,0.5-6,1.6
		c-2.1,1.2-4,2.7-5.5,4.5c-1.9,2.2-3.5,4.7-4.8,7.3c-1.6,3.1-3,6.4-4.1,9.7l-4.1,34.6H687.5z"/>
	<path class="st3" d="M839.1,108.2h-6c-1.5,0-2.6-0.4-3.1-1.2c-0.6-0.9-0.8-1.9-0.8-2.9l1.2-13.4c-1.5,2.7-3.2,5.2-5.1,7.6
		c-1.7,2.1-3.6,4.1-5.8,5.8c-1.9,1.5-4.1,2.8-6.4,3.7c-2.2,0.9-4.6,1.3-7,1.3c-2.5,0-4.9-0.5-7.1-1.5c-2.2-1-4-2.6-5.5-4.5
		c-1.6-2.2-2.8-4.7-3.5-7.3c-0.9-3.3-1.3-6.6-1.2-10c0-3.9,0.5-7.7,1.5-11.5c1.9-7.4,5.6-14.1,10.8-19.8c2.5-2.8,5.4-5.2,8.5-7.2
		c3.1-2,6.5-3.6,10-4.7c3.7-1.1,7.5-1.7,11.3-1.7c2.8,0,5.6,0.2,8.3,0.7c2.8,0.5,5.4,1.3,8,2.4L839.1,108.2z M810.5,99.4
		c2.2,0,4.4-0.7,6.3-2c2.2-1.5,4.2-3.4,5.8-5.5c2-2.6,3.7-5.4,5.1-8.4c1.7-3.5,3.1-7,4.2-10.7l2.8-22.8c-0.9-0.2-1.9-0.4-2.8-0.4
		c-0.9-0.1-1.9-0.1-2.8-0.1c-2.6,0-5.2,0.4-7.6,1.3c-2.4,0.9-4.8,2.1-6.9,3.6c-2.2,1.6-4.1,3.4-5.8,5.5c-1.8,2.2-3.3,4.5-4.5,7
		c-1.3,2.6-2.2,5.3-2.9,8.1c-0.7,2.9-1.1,5.8-1,8.8C800.4,94.2,803.8,99.4,810.5,99.4z"/>
	<path class="st3" d="M856.6,108.2l8-66.4h5.8c1-0.1,2,0.2,2.9,0.8c0.7,0.7,1.1,1.6,1,2.6c0,0.2,0,0.4,0,0.8s0,0.7-0.1,1
		s0,0.7-0.1,0.9s0,0.4,0,0.5l-0.9,12.1c2.8-6.1,6-10.8,9.5-14.2c3.5-3.3,7.2-5,11.1-5c1.9,0,3.8,0.4,5.5,1.2l-2.1,11.2
		c-1.9-0.8-3.9-1.2-6-1.2c-4.2,0-8,2.1-11.3,6.2s-6.1,10.4-8.3,18.8l-3.6,30.8H856.6z"/>
</g>
</svg>
